<svg width="17" height="16" viewBox="0 0 17 16" xmlns="http://www.w3.org/2000/svg">
    <path d="M13.698 11.131l-3.482-6.813a2.5 2.5 0 1 0-3.391.038L3.29 11.127A2.5 2.5 0 1 0 4.95 14h7.1a2.5 2.5 0 1 0 1.648-2.869zM8.5 4a1.5 1.5 0 1 0 0-3 1.5 1.5 0 0 0 0 3zm-6 11a1.5 1.5 0 1 0 0-3 1.5 1.5 0 0 0 0 3zm12 0a1.5 1.5 0 1 0 0-3 1.5 1.5 0 0 0 0 3zm-1.647-3.38L9.45 4.812a2.493 2.493 0 0 1-1.77.05l-3.573 6.722c.424.356.729.851.843 1.415h7.1c.11-.546.4-1.027.803-1.38z" fill="#FFF" fill-rule="evenodd"/>
</svg>
